<?xml version="1.0" encoding="UTF-8" standalone="no"?>
<svg
   width="48"
   height="48"
   viewBox="0 0 44.999999 44.999999"
   id="svg2"
   version="1.1"
   inkscape:version="1.1 (c68e22c387, 2021-05-23)"
   sodipodi:docname="ic_send_location_offline.svg"
   xmlns:inkscape="http://www.inkscape.org/namespaces/inkscape"
   xmlns:sodipodi="http://sodipodi.sourceforge.net/DTD/sodipodi-0.dtd"
   xmlns="http://www.w3.org/2000/svg"
   xmlns:svg="http://www.w3.org/2000/svg"
   xmlns:rdf="http://www.w3.org/1999/02/22-rdf-syntax-ns#"
   xmlns:cc="http://creativecommons.org/ns#"
   xmlns:dc="http://purl.org/dc/elements/1.1/">
  <metadata
     id="metadata10">
    <rdf:RDF>
      <cc:Work
         rdf:about="">
        <dc:format>image/svg+xml</dc:format>
        <dc:type
           rdf:resource="http://purl.org/dc/dcmitype/StillImage" />
      </cc:Work>
    </rdf:RDF>
  </metadata>
  <defs
     id="defs8" />
  <sodipodi:namedview
     pagecolor="#ffffff"
     bordercolor="#666666"
     borderopacity="1"
     objecttolerance="10"
     gridtolerance="10"
     guidetolerance="10"
     inkscape:pageopacity="0"
     inkscape:pageshadow="2"
     inkscape:window-width="956"
     inkscape:window-height="1156"
     id="namedview6"
     showgrid="false"
     inkscape:zoom="4.9166667"
     inkscape:cx="-30.305085"
     inkscape:cy="24.101695"
     inkscape:window-x="2880"
     inkscape:window-y="20"
     inkscape:window-maximized="0"
     inkscape:current-layer="svg2"
     inkscape:pagecheckerboard="0"
     width="51.2px" />
  <path
     d="m 22.5,4.0523431 c -7.875,0 -15.0000005,6.0374999 -15.0000005,15.3749999 0,5.9625 4.5937505,12.975 13.7625005,21.05625 0.7125,0.61875 1.78125,0.61875 2.49375,0 9.15,-8.08125 13.74375,-15.09375 13.74375,-21.05625 0,-9.3375 -7.125,-15.3749999 -15,-15.3749999 z m 0,18.7499999 c -2.0625,0 -3.75,-1.6875 -3.75,-3.75 0,-2.0625 1.6875,-3.75 3.75,-3.75 2.0625,0 3.75,1.6875 3.75,3.75 0,2.0625 -1.6875,3.75 -3.75,3.75 z"
     id="path840"
     style="fill:#000000;fill-opacity:0.627451;stroke-width:1.875" />
</svg>
