<?xml version="1.0" encoding="UTF-8" standalone="no"?>
<svg
   width="48.200001"
   height="48.200001"
   viewBox="0 0 45.1875 45.1875"
   id="svg2"
   version="1.1"
   inkscape:version="1.1 (c68e22c387, 2021-05-23)"
   sodipodi:docname="ic_send_location_dnd.svg"
   xmlns:inkscape="http://www.inkscape.org/namespaces/inkscape"
   xmlns:sodipodi="http://sodipodi.sourceforge.net/DTD/sodipodi-0.dtd"
   xmlns="http://www.w3.org/2000/svg"
   xmlns:svg="http://www.w3.org/2000/svg"
   xmlns:rdf="http://www.w3.org/1999/02/22-rdf-syntax-ns#"
   xmlns:cc="http://creativecommons.org/ns#"
   xmlns:dc="http://purl.org/dc/elements/1.1/">
  <metadata
     id="metadata10">
    <rdf:RDF>
      <cc:Work
         rdf:about="">
        <dc:format>image/svg+xml</dc:format>
        <dc:type
           rdf:resource="http://purl.org/dc/dcmitype/StillImage" />
      </cc:Work>
    </rdf:RDF>
  </metadata>
  <defs
     id="defs8" />
  <sodipodi:namedview
     pagecolor="#ffffff"
     bordercolor="#666666"
     borderopacity="1"
     objecttolerance="10"
     gridtolerance="10"
     guidetolerance="10"
     inkscape:pageopacity="0"
     inkscape:pageshadow="2"
     inkscape:window-width="956"
     inkscape:window-height="1156"
     id="namedview6"
     showgrid="false"
     inkscape:zoom="4.9166667"
     inkscape:cx="-30.305085"
     inkscape:cy="24.101695"
     inkscape:window-x="2880"
     inkscape:window-y="20"
     inkscape:window-maximized="0"
     inkscape:current-layer="svg2"
     inkscape:pagecheckerboard="0"
     width="51.2px" />
  <g
     id="g842"
     transform="matrix(1.875,0,0,1.875,0.09375,0.39609375)"
     style="fill:#f44336;fill-opacity:0.627451">
    <path
       d="m 12,2 c -4.2,0 -8,3.22 -8,8.2 0,3.18 2.45,6.92 7.34,11.23 0.38,0.33 0.95,0.33 1.33,0 C 17.55,17.12 20,13.38 20,10.2 20,5.22 16.2,2 12,2 Z m 0,10 c -1.1,0 -2,-0.9 -2,-2 0,-1.1 0.9,-2 2,-2 1.1,0 2,0.9 2,2 0,1.1 -0.9,2 -2,2 z"
       id="path840"
       style="fill:#f44336;fill-opacity:0.627451" />
  </g>
</svg>
