<?xml version="1.0" encoding="UTF-8" standalone="no"?>
<svg
   width="48"
   height="48"
   viewBox="0 0 48 48"
   id="svg2"
   version="1.1"
   inkscape:version="1.1 (c68e22c387, 2021-05-23)"
   sodipodi:docname="ic_send_cancel_dnd.svg"
   xmlns:inkscape="http://www.inkscape.org/namespaces/inkscape"
   xmlns:sodipodi="http://sodipodi.sourceforge.net/DTD/sodipodi-0.dtd"
   xmlns="http://www.w3.org/2000/svg"
   xmlns:svg="http://www.w3.org/2000/svg"
   xmlns:rdf="http://www.w3.org/1999/02/22-rdf-syntax-ns#"
   xmlns:cc="http://creativecommons.org/ns#"
   xmlns:dc="http://purl.org/dc/elements/1.1/">
  <metadata
     id="metadata10">
    <rdf:RDF>
      <cc:Work
         rdf:about="">
        <dc:format>image/svg+xml</dc:format>
        <dc:type
           rdf:resource="http://purl.org/dc/dcmitype/StillImage" />
      </cc:Work>
    </rdf:RDF>
  </metadata>
  <defs
     id="defs8" />
  <sodipodi:namedview
     pagecolor="#ffffff"
     bordercolor="#666666"
     borderopacity="1"
     objecttolerance="10"
     gridtolerance="10"
     guidetolerance="10"
     inkscape:pageopacity="0"
     inkscape:pageshadow="2"
     inkscape:window-width="956"
     inkscape:window-height="507"
     id="namedview6"
     showgrid="false"
     inkscape:zoom="4.9166667"
     inkscape:cx="-8.338983"
     inkscape:cy="24.101695"
     inkscape:window-x="0"
     inkscape:window-y="549"
     inkscape:window-maximized="0"
     inkscape:current-layer="svg2"
     inkscape:pagecheckerboard="0" />
  <path
     d="M 24,3.9999999 C 12.94,3.9999999 4,12.94 4,24 4,35.06 12.94,44 24,44 35.06,44 44,35.06 44,24 44,12.94 35.06,3.9999999 24,3.9999999 Z M 32.6,32.6 c -0.78,0.78 -2.04,0.78 -2.82,0 L 24,26.82 18.22,32.6 c -0.78,0.78 -2.04,0.78 -2.82,0 -0.78,-0.78 -0.78,-2.04 0,-2.82 L 21.18,24 15.4,18.22 c -0.78,-0.78 -0.78,-2.04 0,-2.82 0.78,-0.78 2.04,-0.78 2.82,0 L 24,21.18 29.78,15.4 c 0.78,-0.78 2.04,-0.78 2.82,0 0.78,0.78 0.78,2.04 0,2.82 L 26.82,24 32.6,29.78 c 0.76,0.76 0.76,2.04 0,2.82 z"
     id="path8718"
     style="fill:#f44336;fill-opacity:0.627451;stroke-width:2" />
</svg>
