<?xml version="1.0" encoding="UTF-8" standalone="no"?>
<svg
   width="48"
   height="48"
   viewBox="0 0 48 48"
   id="svg2"
   version="1.1"
   inkscape:version="1.1 (c68e22c387, 2021-05-23)"
   sodipodi:docname="ic_send_photo_offline.svg"
   xmlns:inkscape="http://www.inkscape.org/namespaces/inkscape"
   xmlns:sodipodi="http://sodipodi.sourceforge.net/DTD/sodipodi-0.dtd"
   xmlns="http://www.w3.org/2000/svg"
   xmlns:svg="http://www.w3.org/2000/svg"
   xmlns:rdf="http://www.w3.org/1999/02/22-rdf-syntax-ns#"
   xmlns:cc="http://creativecommons.org/ns#"
   xmlns:dc="http://purl.org/dc/elements/1.1/">
  <metadata
     id="metadata12">
    <rdf:RDF>
      <cc:Work
         rdf:about="">
        <dc:format>image/svg+xml</dc:format>
        <dc:type
           rdf:resource="http://purl.org/dc/dcmitype/StillImage" />
      </cc:Work>
    </rdf:RDF>
  </metadata>
  <defs
     id="defs10" />
  <sodipodi:namedview
     pagecolor="#ffffff"
     bordercolor="#666666"
     borderopacity="1"
     objecttolerance="10"
     gridtolerance="10"
     guidetolerance="10"
     inkscape:pageopacity="0"
     inkscape:pageshadow="2"
     inkscape:window-width="956"
     inkscape:window-height="567"
     id="namedview8"
     showgrid="false"
     inkscape:zoom="4.9166667"
     inkscape:cx="-8.338983"
     inkscape:cy="24.101695"
     inkscape:window-x="960"
     inkscape:window-y="609"
     inkscape:window-maximized="0"
     inkscape:current-layer="svg2"
     inkscape:pagecheckerboard="0" />
  <g
     id="g1514"
     transform="translate(33.152543,-27.661016)">
    <circle
       cx="-9.1525421"
       cy="53.661018"
       r="6"
       id="circle825"
       style="fill:#000000;fill-opacity:0.627451;stroke-width:2" />
    <path
       d="M 6.8474583,37.661016 H 0.50745805 L -1.972542,34.961015 c -0.74,-0.82 -1.8200001,-1.3 -2.9400001,-1.3 h -8.4799999 c -1.12,0 -2.2,0.48 -2.96,1.3 l -2.460001,2.700001 h -6.340001 c -2.2,0 -4,1.8 -4,4 v 24.000001 c 0,2.2 1.8,4 4,4 H 6.8474583 c 2.2,0 3.9999997,-1.8 3.9999997,-4 V 41.661016 c 0,-2.2 -1.7999997,-4 -3.9999997,-4 z M -9.1525423,63.661017 c -5.5199997,0 -10.0000007,-4.48 -10.0000007,-10 0,-5.52 4.480001,-10 10.0000007,-10 5.5200002,0 10.00000036,4.48 10.00000036,10 0,5.52 -4.48000016,10 -10.00000036,10 z"
       id="path827"
       style="fill:#000000;fill-opacity:0.627451;stroke-width:2" />
  </g>
</svg>
