<?xml version="1.0" encoding="UTF-8" standalone="no"?>
<svg
   width="48"
   height="48"
   viewBox="0 0 48 48"
   id="svg2"
   version="1.1"
   inkscape:version="1.1 (c68e22c387, 2021-05-23)"
   sodipodi:docname="ic_send_photo_online.svg"
   xmlns:inkscape="http://www.inkscape.org/namespaces/inkscape"
   xmlns:sodipodi="http://sodipodi.sourceforge.net/DTD/sodipodi-0.dtd"
   xmlns="http://www.w3.org/2000/svg"
   xmlns:svg="http://www.w3.org/2000/svg"
   xmlns:rdf="http://www.w3.org/1999/02/22-rdf-syntax-ns#"
   xmlns:cc="http://creativecommons.org/ns#"
   xmlns:dc="http://purl.org/dc/elements/1.1/">
  <metadata
     id="metadata12">
    <rdf:RDF>
      <cc:Work
         rdf:about="">
        <dc:format>image/svg+xml</dc:format>
        <dc:type
           rdf:resource="http://purl.org/dc/dcmitype/StillImage" />
      </cc:Work>
    </rdf:RDF>
  </metadata>
  <defs
     id="defs10" />
  <sodipodi:namedview
     pagecolor="#ffffff"
     bordercolor="#666666"
     borderopacity="1"
     objecttolerance="10"
     gridtolerance="10"
     guidetolerance="10"
     inkscape:pageopacity="0"
     inkscape:pageshadow="2"
     inkscape:window-width="956"
     inkscape:window-height="567"
     id="namedview8"
     showgrid="false"
     inkscape:zoom="4.9166667"
     inkscape:cx="-8.338983"
     inkscape:cy="24.101695"
     inkscape:window-x="960"
     inkscape:window-y="609"
     inkscape:window-maximized="0"
     inkscape:current-layer="svg2"
     inkscape:pagecheckerboard="0" />
  <g
     id="g1868"
     transform="translate(36.20339,7.322034)">
    <circle
       cx="-12.203389"
       cy="18.677969"
       r="6"
       id="circle825"
       style="fill:#259b24;fill-opacity:0.627451;stroke-width:2" />
    <path
       d="M 3.7966113,2.677966 H -2.543389 l -2.48,-2.700001 c -0.74,-0.82 -1.8200001,-1.3 -2.9400001,-1.3 h -8.4799999 c -1.12,0 -2.2,0.48 -2.96,1.3 l -2.460001,2.700001 h -6.340001 c -2.2,0 -4,1.8 -4,4 v 24.000001 c 0,2.2 1.8,4 4,4 H 3.7966113 c 2.2,0 3.9999997,-1.8 3.9999997,-4 V 6.677966 c 0,-2.2 -1.7999997,-4 -3.9999997,-4 z M -12.203389,28.677967 c -5.52,0 -10.000001,-4.48 -10.000001,-10 0,-5.52 4.480001,-10 10.000001,-10 5.5199999,0 10.0000001,4.48 10.0000001,10 0,5.52 -4.4800002,10 -10.0000001,10 z"
       id="path827"
       style="fill:#259b24;fill-opacity:0.627451;stroke-width:2" />
  </g>
</svg>
