<?xml version="1.0" encoding="UTF-8" standalone="no"?>
<svg
   width="48"
   height="48"
   viewBox="0 0 48 48"
   id="svg2"
   version="1.1"
   inkscape:version="1.1 (c68e22c387, 2021-05-23)"
   sodipodi:docname="ic_send_voice_offline.svg"
   xmlns:inkscape="http://www.inkscape.org/namespaces/inkscape"
   xmlns:sodipodi="http://sodipodi.sourceforge.net/DTD/sodipodi-0.dtd"
   xmlns="http://www.w3.org/2000/svg"
   xmlns:svg="http://www.w3.org/2000/svg"
   xmlns:rdf="http://www.w3.org/1999/02/22-rdf-syntax-ns#"
   xmlns:cc="http://creativecommons.org/ns#"
   xmlns:dc="http://purl.org/dc/elements/1.1/">
  <metadata
     id="metadata10">
    <rdf:RDF>
      <cc:Work
         rdf:about="">
        <dc:format>image/svg+xml</dc:format>
        <dc:type
           rdf:resource="http://purl.org/dc/dcmitype/StillImage" />
      </cc:Work>
    </rdf:RDF>
  </metadata>
  <defs
     id="defs8" />
  <sodipodi:namedview
     pagecolor="#ffffff"
     bordercolor="#666666"
     borderopacity="1"
     objecttolerance="10"
     gridtolerance="10"
     guidetolerance="10"
     inkscape:pageopacity="0"
     inkscape:pageshadow="2"
     inkscape:window-width="956"
     inkscape:window-height="1156"
     id="namedview6"
     showgrid="false"
     inkscape:zoom="4.9166667"
     inkscape:cx="-7.9322033"
     inkscape:cy="24.101695"
     inkscape:window-x="2880"
     inkscape:window-y="20"
     inkscape:window-maximized="0"
     inkscape:current-layer="svg2"
     inkscape:pagecheckerboard="0" />
  <g
     style="fill:#000000;fill-opacity:0.627451"
     id="g4564"
     transform="matrix(2,0,0,2,-0.00212852,1)">
    <path
       d="m 12,14 c 1.66,0 3,-1.34 3,-3 V 5 C 15,3.34 13.66,2 12,2 10.34,2 9,3.34 9,5 v 6 c 0,1.66 1.34,3 3,3 z m 5.91,-3 c -0.49,0 -0.9,0.36 -0.98,0.85 C 16.52,14.2 14.47,16 12,16 9.53,16 7.48,14.2 7.07,11.85 6.99,11.36 6.58,11 6.09,11 c -0.61,0 -1.09,0.54 -1,1.14 0.49,3 2.89,5.35 5.91,5.78 V 20 c 0,0.55 0.45,1 1,1 0.55,0 1,-0.45 1,-1 v -2.08 c 3.02,-0.43 5.42,-2.78 5.91,-5.78 0.1,-0.6 -0.39,-1.14 -1,-1.14 z"
       id="path4555"
       style="fill:#000000;fill-opacity:0.627451" />
  </g>
</svg>
