<?xml version="1.0" encoding="UTF-8" standalone="no"?>
<svg
   width="48"
   height="48"
   viewBox="0 0 44.999999 44.999999"
   id="svg2"
   version="1.1"
   inkscape:version="1.1 (c68e22c387, 2021-05-23)"
   sodipodi:docname="ic_send_photo_dnd.svg"
   xmlns:inkscape="http://www.inkscape.org/namespaces/inkscape"
   xmlns:sodipodi="http://sodipodi.sourceforge.net/DTD/sodipodi-0.dtd"
   xmlns="http://www.w3.org/2000/svg"
   xmlns:svg="http://www.w3.org/2000/svg"
   xmlns:rdf="http://www.w3.org/1999/02/22-rdf-syntax-ns#"
   xmlns:cc="http://creativecommons.org/ns#"
   xmlns:dc="http://purl.org/dc/elements/1.1/">
  <metadata
     id="metadata12">
    <rdf:RDF>
      <cc:Work
         rdf:about="">
        <dc:format>image/svg+xml</dc:format>
        <dc:type
           rdf:resource="http://purl.org/dc/dcmitype/StillImage" />
      </cc:Work>
    </rdf:RDF>
  </metadata>
  <defs
     id="defs10" />
  <sodipodi:namedview
     pagecolor="#ffffff"
     bordercolor="#666666"
     borderopacity="1"
     objecttolerance="10"
     gridtolerance="10"
     guidetolerance="10"
     inkscape:pageopacity="0"
     inkscape:pageshadow="2"
     inkscape:window-width="956"
     inkscape:window-height="567"
     id="namedview8"
     showgrid="false"
     inkscape:zoom="4.9166667"
     inkscape:cx="-28.983051"
     inkscape:cy="26.135593"
     inkscape:window-x="960"
     inkscape:window-y="609"
     inkscape:window-maximized="0"
     inkscape:current-layer="svg2"
     inkscape:pagecheckerboard="0"
     width="48px" />
  <g
     id="g831">
    <circle
       cx="22.5"
       cy="24.375"
       r="5.625"
       id="circle825"
       style="fill:#f44336;fill-opacity:0.627451;stroke-width:1.875" />
    <path
       d="m 37.5,9.3749993 h -5.94375 l -2.325,-2.53125 C 28.5375,6.0749993 27.525,5.6249993 26.475,5.6249993 h -7.95 c -1.05,0 -2.0625,0.45 -2.775,1.21875 l -2.30625,2.53125 H 7.4999992 c -2.0625,0 -3.75,1.6875007 -3.75,3.7500007 v 22.5 c 0,2.0625 1.6875,3.75 3.75,3.75 H 37.5 c 2.0625,0 3.75,-1.6875 3.75,-3.75 v -22.5 c 0,-2.0625 -1.6875,-3.7500007 -3.75,-3.7500007 z M 22.5,33.75 c -5.175,0 -9.375,-4.2 -9.375,-9.375 0,-5.175 4.2,-9.375 9.375,-9.375 5.175,0 9.375,4.2 9.375,9.375 0,5.175 -4.2,9.375 -9.375,9.375 z"
       id="path827"
       style="fill:#f44336;fill-opacity:0.627451;stroke-width:1.875" />
  </g>
</svg>
