<?xml version="1.0" encoding="UTF-8" standalone="no"?>
<svg
   width="48"
   height="48"
   viewBox="0 0 48 48"
   id="svg2"
   version="1.1"
   inkscape:version="1.1 (c68e22c387, 2021-05-23)"
   sodipodi:docname="ic_send_photo_away.svg"
   xmlns:inkscape="http://www.inkscape.org/namespaces/inkscape"
   xmlns:sodipodi="http://sodipodi.sourceforge.net/DTD/sodipodi-0.dtd"
   xmlns="http://www.w3.org/2000/svg"
   xmlns:svg="http://www.w3.org/2000/svg"
   xmlns:rdf="http://www.w3.org/1999/02/22-rdf-syntax-ns#"
   xmlns:cc="http://creativecommons.org/ns#"
   xmlns:dc="http://purl.org/dc/elements/1.1/">
  <metadata
     id="metadata12">
    <rdf:RDF>
      <cc:Work
         rdf:about="">
        <dc:format>image/svg+xml</dc:format>
        <dc:type
           rdf:resource="http://purl.org/dc/dcmitype/StillImage" />
      </cc:Work>
    </rdf:RDF>
  </metadata>
  <defs
     id="defs10" />
  <sodipodi:namedview
     pagecolor="#ffffff"
     bordercolor="#666666"
     borderopacity="1"
     objecttolerance="10"
     gridtolerance="10"
     guidetolerance="10"
     inkscape:pageopacity="0"
     inkscape:pageshadow="2"
     inkscape:window-width="956"
     inkscape:window-height="567"
     id="namedview8"
     showgrid="false"
     inkscape:zoom="4.9166667"
     inkscape:cx="-8.338983"
     inkscape:cy="24.101695"
     inkscape:window-x="960"
     inkscape:window-y="609"
     inkscape:window-maximized="0"
     inkscape:current-layer="svg2"
     inkscape:pagecheckerboard="0" />
  <g
     id="g1117"
     transform="translate(7.525424,-34.372881)">
    <circle
       cx="16.474577"
       cy="60.372883"
       r="6"
       id="circle825"
       style="fill:#ff9800;fill-opacity:0.627451;stroke-width:2" />
    <path
       d="m 32.474577,44.372881 h -6.34 l -2.48,-2.700001 c -0.74,-0.82 -1.82,-1.3 -2.94,-1.3 h -8.480001 c -1.12,0 -2.2,0.48 -2.9599997,1.3 l -2.4600001,2.700001 h -6.340001 c -2.2000001,0 -4.0000001,1.8 -4.0000001,4 v 24.000001 c 0,2.2 1.8,4 4.0000001,4 H 32.474577 c 2.2,0 4,-1.8 4,-4 V 48.372881 c 0,-2.2 -1.8,-4 -4,-4 z m -16,26.000001 c -5.520001,0 -10.0000008,-4.48 -10.0000008,-10 0,-5.52 4.4799998,-10 10.0000008,-10 5.52,0 10,4.48 10,10 0,5.52 -4.48,10 -10,10 z"
       id="path827"
       style="fill:#ff9800;fill-opacity:0.627451;stroke-width:2" />
  </g>
</svg>
