<?xml version="1.0" encoding="UTF-8" standalone="no"?>
<svg
   width="48"
   height="48"
   viewBox="0 0 48 48"
   id="svg2"
   version="1.1"
   inkscape:version="1.1 (c68e22c387, 2021-05-23)"
   sodipodi:docname="ic_send_picture_away.svg"
   xmlns:inkscape="http://www.inkscape.org/namespaces/inkscape"
   xmlns:sodipodi="http://sodipodi.sourceforge.net/DTD/sodipodi-0.dtd"
   xmlns="http://www.w3.org/2000/svg"
   xmlns:svg="http://www.w3.org/2000/svg"
   xmlns:rdf="http://www.w3.org/1999/02/22-rdf-syntax-ns#"
   xmlns:cc="http://creativecommons.org/ns#"
   xmlns:dc="http://purl.org/dc/elements/1.1/">
  <metadata
     id="metadata10">
    <rdf:RDF>
      <cc:Work
         rdf:about="">
        <dc:format>image/svg+xml</dc:format>
        <dc:type
           rdf:resource="http://purl.org/dc/dcmitype/StillImage" />
        <dc:title />
      </cc:Work>
    </rdf:RDF>
  </metadata>
  <defs
     id="defs8" />
  <sodipodi:namedview
     pagecolor="#ffffff"
     bordercolor="#666666"
     borderopacity="1"
     objecttolerance="10"
     gridtolerance="10"
     guidetolerance="10"
     inkscape:pageopacity="0"
     inkscape:pageshadow="2"
     inkscape:window-width="1916"
     inkscape:window-height="1036"
     id="namedview6"
     showgrid="false"
     inkscape:zoom="4.9166667"
     inkscape:cx="6.7118644"
     inkscape:cy="24.101695"
     inkscape:window-x="0"
     inkscape:window-y="20"
     inkscape:window-maximized="0"
     inkscape:current-layer="svg2"
     inkscape:pagecheckerboard="0" />
  <path
     d="M 42,38 V 10 C 42,7.8000002 40.2,6.0000002 38,6.0000002 H 10 c -2.2,0 -4,1.8 -4,3.9999998 v 28 c 0,2.2 1.8,4 4,4 h 28 c 2.2,0 4,-1.8 4,-4 z M 17.8,27.96 22,33.02 28.2,25.04 c 0.4,-0.52 1.2,-0.52 1.6,0.02 l 7.02,9.36 c 0.5,0.66 0.02,1.6 -0.8,1.6 H 12.04 c -0.84,0 -1.3,-0.96 -0.78,-1.62 L 16.24,28 c 0.38,-0.52 1.14,-0.54 1.56,-0.04 z"
     id="path2230"
     style="fill:#ff9800;fill-opacity:0.627451;stroke-width:2" />
</svg>
