<?xml version="1.0" encoding="UTF-8" standalone="no"?>
<!-- Created with Inkscape (http://www.inkscape.org/) -->

<svg
   width="512"
   height="512"
   id="svg2"
   version="1.1"
   inkscape:version="1.4.2 (f4327f4, 2025-05-13)"
   sodipodi:docname="piratx_notification_transparent.svg"
   inkscape:export-filename="/home/diesys/diesys/grafica/conversation/conversation_bubble.png"
   inkscape:export-xdpi="100"
   inkscape:export-ydpi="100"
   xmlns:inkscape="http://www.inkscape.org/namespaces/inkscape"
   xmlns:sodipodi="http://sodipodi.sourceforge.net/DTD/sodipodi-0.dtd"
   xmlns:xlink="http://www.w3.org/1999/xlink"
   xmlns="http://www.w3.org/2000/svg"
   xmlns:svg="http://www.w3.org/2000/svg"
   xmlns:rdf="http://www.w3.org/1999/02/22-rdf-syntax-ns#"
   xmlns:cc="http://creativecommons.org/ns#"
   xmlns:dc="http://purl.org/dc/elements/1.1/">
  <defs
     id="defs4">
    <linearGradient
       inkscape:collect="always"
       id="linearGradient3874">
      <stop
         style="stop-color:#00a000;stop-opacity:1;"
         offset="0"
         id="stop3876" />
      <stop
         style="stop-color:#00a000;stop-opacity:0;"
         offset="1"
         id="stop3878" />
    </linearGradient>
    <linearGradient
       inkscape:collect="always"
       id="linearGradient3913">
      <stop
         style="stop-color:#ffffff;stop-opacity:1;"
         offset="0"
         id="stop3915" />
      <stop
         style="stop-color:#ffffff;stop-opacity:0;"
         offset="1"
         id="stop3917" />
    </linearGradient>
    <linearGradient
       inkscape:collect="always"
       id="linearGradient3818">
      <stop
         style="stop-color:#669900;stop-opacity:1"
         offset="0"
         id="stop3820" />
      <stop
         style="stop-color:#99cc00;stop-opacity:1"
         offset="1"
         id="stop3822" />
    </linearGradient>
    <radialGradient
       inkscape:collect="always"
       xlink:href="#linearGradient3818"
       id="radialGradient3824"
       cx="212.07048"
       cy="1045.9178"
       fx="212.07048"
       fy="1045.9178"
       r="238.57143"
       gradientTransform="matrix(1.9491621,-0.90817722,0.65829208,1.4128498,-879.63121,-248.98648)"
       gradientUnits="userSpaceOnUse" />
    <radialGradient
       inkscape:collect="always"
       xlink:href="#linearGradient3913"
       id="radialGradient3919"
       cx="362.98563"
       cy="379.77524"
       fx="362.98563"
       fy="379.77524"
       r="139.95312"
       gradientTransform="matrix(1.3800477,1.0445431,-1.3325077,1.7605059,339.09383,-577.83938)"
       gradientUnits="userSpaceOnUse" />
    <linearGradient
       gradientUnits="userSpaceOnUse"
       y2="-155.75885"
       x2="114.59022"
       y1="35.545681"
       x1="114.55434"
       id="linearGradient3794"
       xlink:href="#linearGradient3788"
       inkscape:collect="always" />
    <linearGradient
       id="linearGradient3788">
      <stop
         id="stop3790"
         offset="0"
         style="stop-color:#1eed00;stop-opacity:1;" />
      <stop
         id="stop3792"
         offset="1"
         style="stop-color:#abff28;stop-opacity:1;" />
    </linearGradient>
    <linearGradient
       id="linearGradient3821">
      <stop
         style="stop-color:#ff283d;stop-opacity:1;"
         offset="0"
         id="stop3823" />
      <stop
         style="stop-color:#ff28ae;stop-opacity:1;"
         offset="1"
         id="stop3825" />
    </linearGradient>
    <linearGradient
       id="linearGradient4543">
      <stop
         style="stop-color:#2e45bf;stop-opacity:1;"
         offset="0"
         id="stop4545" />
      <stop
         style="stop-color:#28a7ff;stop-opacity:1;"
         offset="1"
         id="stop4547" />
    </linearGradient>
    <linearGradient
       inkscape:collect="always"
       id="linearGradient4098">
      <stop
         style="stop-color:#ffffff;stop-opacity:1;"
         offset="0"
         id="stop4100" />
      <stop
         style="stop-color:#e6e6e6;stop-opacity:1"
         offset="1"
         id="stop4102" />
    </linearGradient>
    <linearGradient
       inkscape:collect="always"
       xlink:href="#linearGradient4098"
       id="linearGradient3833"
       x1="273.81851"
       y1="764.74677"
       x2="304.14023"
       y2="936.47272"
       gradientUnits="userSpaceOnUse" />
    <linearGradient
       inkscape:collect="always"
       xlink:href="#linearGradient4098"
       id="linearGradient3853"
       gradientUnits="userSpaceOnUse"
       x1="273.81851"
       y1="764.74677"
       x2="304.14023"
       y2="936.47272" />
    <radialGradient
       inkscape:collect="always"
       xlink:href="#linearGradient3818"
       id="radialGradient3863"
       cx="262.33273"
       cy="945.23846"
       fx="262.33273"
       fy="945.23846"
       r="185.49754"
       gradientTransform="matrix(1.2253203,-0.54206726,0.43090148,0.97403458,-466.4135,170.11831)"
       gradientUnits="userSpaceOnUse" />
    <radialGradient
       inkscape:collect="always"
       xlink:href="#linearGradient3818"
       id="radialGradient3866"
       gradientUnits="userSpaceOnUse"
       gradientTransform="matrix(1.2253203,-0.54206726,0.43090148,0.97403458,-466.4135,170.11831)"
       cx="262.33273"
       cy="945.23846"
       fx="262.33273"
       fy="945.23846"
       r="185.49754" />
    <radialGradient
       inkscape:collect="always"
       xlink:href="#linearGradient3913"
       id="radialGradient3873"
       gradientUnits="userSpaceOnUse"
       gradientTransform="matrix(1.3800477,1.0445431,-1.3325077,1.7605059,339.09383,-577.83938)"
       cx="321.75275"
       cy="386.38751"
       fx="321.75275"
       fy="386.38751"
       r="139.95312" />
    <radialGradient
       inkscape:collect="always"
       xlink:href="#linearGradient3818"
       id="radialGradient3880"
       gradientUnits="userSpaceOnUse"
       gradientTransform="matrix(1.2253203,-0.54206726,0.43090148,0.97403458,-466.4135,-370.24387)"
       cx="262.33273"
       cy="945.23846"
       fx="262.33273"
       fy="945.23846"
       r="185.49754" />
    <radialGradient
       inkscape:collect="always"
       xlink:href="#linearGradient3874"
       id="radialGradient3881"
       cx="150.35715"
       cy="236.28571"
       fx="150.35715"
       fy="236.28571"
       r="26.887305"
       gradientTransform="matrix(1,0,0,0.98671703,0,3.1385771)"
       gradientUnits="userSpaceOnUse" />
  </defs>
  <sodipodi:namedview
     id="base"
     pagecolor="#ffffff"
     bordercolor="#666666"
     borderopacity="1.0"
     inkscape:pageopacity="0.0"
     inkscape:pageshadow="2"
     inkscape:zoom="0.70910507"
     inkscape:cx="-62.050043"
     inkscape:cy="288.39168"
     inkscape:document-units="px"
     inkscape:current-layer="layer1"
     showgrid="false"
     inkscape:window-width="1920"
     inkscape:window-height="1009"
     inkscape:window-x="-8"
     inkscape:window-y="-8"
     inkscape:window-maximized="1"
     showguides="true"
     inkscape:guide-bbox="true"
     inkscape:snap-to-guides="true"
     inkscape:snap-grids="false"
     inkscape:object-paths="true"
     inkscape:object-nodes="false"
     inkscape:snap-nodes="false"
     inkscape:showpageshadow="2"
     inkscape:pagecheckerboard="0"
     inkscape:deskcolor="#d1d1d1">
    <sodipodi:guide
       orientation="1,0"
       position="0,534.28571"
       id="guide3004"
       inkscape:locked="false" />
    <sodipodi:guide
       orientation="0,1"
       position="394.28571,511.42857"
       id="guide3006"
       inkscape:locked="false" />
    <sodipodi:guide
       orientation="1,0"
       position="511.42857,320"
       id="guide3008"
       inkscape:locked="false" />
    <sodipodi:guide
       orientation="0,1"
       position="401.42857,0"
       id="guide3010"
       inkscape:locked="false" />
    <sodipodi:guide
       orientation="1,0"
       position="17.142857,258.57143"
       id="guide3012"
       inkscape:locked="false" />
    <sodipodi:guide
       orientation="0,1"
       position="327.14286,494.28571"
       id="guide3014"
       inkscape:locked="false" />
    <sodipodi:guide
       orientation="0,1"
       position="324.28571,17.142857"
       id="guide3016"
       inkscape:locked="false" />
    <sodipodi:guide
       orientation="1,0"
       position="494.28571,237.14286"
       id="guide3018"
       inkscape:locked="false" />
    <sodipodi:guide
       orientation="1,0"
       position="255.71429,302.85714"
       id="guide3022"
       inkscape:locked="false" />
    <sodipodi:guide
       orientation="1,0"
       position="660,-315"
       id="guide3904"
       inkscape:locked="false" />
    <sodipodi:guide
       orientation="0,1"
       position="554.28571,475.71429"
       id="guide3931"
       inkscape:locked="false" />
    <sodipodi:guide
       orientation="0,1"
       position="581.42857,244.28571"
       id="guide3933"
       inkscape:locked="false" />
  </sodipodi:namedview>
  <metadata
     id="metadata7">
    <rdf:RDF>
      <cc:Work
         rdf:about="">
        <dc:format>image/svg+xml</dc:format>
        <dc:type
           rdf:resource="http://purl.org/dc/dcmitype/StillImage" />
      </cc:Work>
    </rdf:RDF>
  </metadata>
  <g
     inkscape:label="Layer 1"
     inkscape:groupmode="layer"
     id="layer1"
     transform="translate(0,-540.36218)"
     style="display:inline">
    <path
       sodipodi:nodetypes="ccsssscc"
       inkscape:connector-curvature="0"
       id="path3845"
       d="m 493.47738,871.35334 -24.04389,-87.99322 c 15.28869,-22.23857 20.55595,-48.35175 20.55595,-76.28358 0,-81.18671 -74.40499,-146.97946 -166.16989,-146.97946 -91.76484,0 -166.16981,65.79275 -166.16981,146.97946 0,81.18672 74.40497,147.02794 166.16981,147.02794 30.46639,0 52.72061,-5.65874 80.85763,-15.12352 z"
       style="opacity:0;fill:none;stroke:#000000;stroke-width:17.21866226;stroke-linecap:butt;stroke-linejoin:round;stroke-miterlimit:4;stroke-dasharray:68.87464583, 68.87464583;stroke-dashoffset:0;stroke-opacity:1" />
    <path
       inkscape:connector-curvature="0"
       id="path3855"
       d="m 320.17833,548.76674 c -4.13827,-9.4e-4 -8.25632,0.0605 -9.81586,0.15351 -12.92075,0.76954 -22.81917,2.12193 -34.11502,4.70824 -4.34132,0.99402 -7.66199,1.87532 -11.68283,3.07059 -2.5677,0.76329 -6.47023,1.98325 -6.6759,2.09824 -0.0631,0.0352 2.55734,6.48362 6.13843,15.14825 0.0358,0.0868 0.13111,0.0961 0.2546,0.0511 0.85568,-0.31146 4.96317,-1.59671 6.87391,-2.14942 16.44697,-4.75734 33.78787,-7.08565 50.97451,-6.85765 2.42028,0.0321 5.48294,0.11062 6.78907,0.17914 1.30611,0.0686 2.39944,0.10688 2.43274,0.0767 0.0526,-0.0476 1.17785,-16.13384 1.13152,-16.1718 -0.01,-0.008 -1.08429,-0.0761 -2.40448,-0.15351 -1.60409,-0.0941 -5.76244,-0.15187 -9.90069,-0.15351 z m 85.17439,19.57499 c -0.0778,0.0759 -8.57119,14.09759 -8.57119,14.15032 0,0.0128 0.38971,0.21991 0.8769,0.46056 6.4421,3.18205 13.4978,7.39333 19.91497,11.84882 2.48679,1.7266 4.87769,3.48988 7.09982,5.24414 3.2378,2.55607 6.46633,5.33835 9.55245,8.21414 4.9072,4.57277 9.45432,9.38196 13.10605,13.89411 0.50173,0.62001 0.608,0.70303 0.79207,0.58852 0.87167,-0.54223 14.14115,-9.56974 14.14386,-9.62116 0.004,-0.0695 -2.56391,-3.14501 -3.64912,-4.37562 -4.33822,-4.91937 -8.14593,-8.7511 -13.26695,-13.38263 -6.3529,-5.74565 -12.40806,-10.50897 -19.23603,-15.09142 -1.9729,-1.32405 -4.01031,-2.63303 -6.13807,-3.94623 -5.07411,-3.13161 -14.3826,-8.21954 -14.62476,-7.98355 z m -211.19629,27.76323 -1.86699,1.79122 c -16.58679,15.77185 -29.26131,34.2146 -37.25495,54.24707 -0.39127,0.98058 -0.7358,1.85972 -0.76377,1.97029 -0.0367,0.14529 2.27287,0.91046 8.2883,2.73794 4.57858,1.39099 8.39743,2.52833 8.48633,2.53327 0.0889,0.005 0.70476,-1.35221 1.3861,-3.01945 6.99352,-17.11289 17.82285,-32.84295 32.02173,-46.51941 l 2.34786,-2.27736 -6.30817,-5.73177 z m 298.4074,80.04008 -7.60942,1.33057 c -4.18792,0.7436 -8.12463,1.43993 -8.76921,1.53529 -0.80487,0.1191 -1.18807,0.24336 -1.18807,0.38383 0,0.1125 0.17929,1.13426 0.39603,2.27735 2.07747,10.95686 2.52391,24.06935 1.30123,38.40797 -0.55966,6.56324 -1.80497,14.62573 -2.9985,19.47266 -0.17944,0.72877 -0.2917,1.37377 -0.25457,1.40735 0.0371,0.0335 3.93999,0.80348 8.68429,1.71443 4.74436,0.9109 8.69153,1.65348 8.74095,1.66321 0.0493,0.01 0.35153,-1.20446 0.67889,-2.71235 2.58164,-11.8915 3.70992,-23.06661 3.734,-37.02617 0.0169,-9.79205 -0.60847,-16.92701 -2.20646,-25.69062 z m -11.5697,126.55947 c -0.36048,0.007 -16.97617,3.73907 -17.08581,3.83822 -0.0753,0.0682 16.94207,62.59192 17.19896,63.25382 0.30965,0.798 2.86925,7.31813 10.42538,6.19627 8.42278,-1.62864 7.56799,-10.19392 6.91501,-10.06007 -0.0867,0.0174 -3.86345,-14.3273 -8.59948,-31.67794 -6.7623,-24.77405 -8.66138,-31.55359 -8.85406,-31.5503 z m -80.13918,24.89734 c -1.52266,0.0905 -3.53738,0.70727 -8.03371,2.175 -8.68549,2.83522 -18.54878,5.74416 -22.99794,6.7809 -0.64367,0.15 -1.18718,0.35231 -1.18807,0.43501 -0.002,0.14944 4.40029,15.44773 4.46946,15.532 0.0424,0.0521 4.87869,-1.18335 7.89228,-2.02144 3.91758,-1.08954 10.50973,-3.08747 15.2188,-4.60587 l 4.6675,-1.50969 17.14236,6.2435 c 13.94595,5.08505 17.14167,6.22073 17.22724,6.03865 0.69647,-1.48186 6.62352,-14.82249 6.59105,-14.84098 -0.29825,-0.17022 -37.77097,-13.74416 -38.3582,-13.89441 -0.96682,-0.2474 -1.71716,-0.3869 -2.63077,-0.33267 z"
       style="opacity:0.5;fill:#ffffff;fill-opacity:1;stroke:#000000;stroke-width:4.30467;stroke-miterlimit:4;stroke-dasharray:none;stroke-opacity:1"
       sodipodi:nodetypes="ccssccssscccccccssssscccsssscccscsssccccccsssssssssscccsscssccsccscccccssc" />
  </g>
  <g
     inkscape:groupmode="layer"
     id="layer2"
     inkscape:label="Layer 2"
     style="display:inline">
    <path
       sodipodi:nodetypes="ccsssscc"
       inkscape:connector-curvature="0"
       id="path3845-7"
       d="M 23.939214,490.62525 44.460762,407.7534 C 31.411813,386.80914 26.916189,362.2158 26.916189,335.90966 c 0,-76.4615 63.504925,-138.42498 141.826591,-138.42498 78.32162,0 141.82653,61.96348 141.82653,138.42498 0,76.4615 -63.50491,138.47065 -141.82653,138.47065 -26.00317,0 -44.99723,-5.3294 -69.012271,-14.24332 z"
       style="display:inline;opacity:0;fill:none;stroke:#000000;stroke-width:15.43764114;stroke-linecap:butt;stroke-linejoin:round;stroke-miterlimit:4;stroke-dasharray:61.75056976, 61.75056976;stroke-dashoffset:0;stroke-opacity:1" />
    <path
       inkscape:connector-curvature="0"
       id="path3855-0"
       d="m 171.85058,186.81378 c 3.53202,-0.001 7.0468,0.057 8.37786,0.14458 11.02792,0.72475 19.47625,1.99843 29.1173,4.43421 3.70534,0.93617 6.53954,1.76617 9.97134,2.89187 2.19153,0.71887 5.52236,1.86783 5.6979,1.97612 0.0538,0.0332 -2.18271,6.10627 -5.23917,14.2666 -0.0306,0.0818 -0.1119,0.0905 -0.2173,0.0482 -0.73033,-0.29333 -4.23609,-1.50378 -5.86691,-2.02432 -14.03755,-4.48046 -28.83807,-6.67326 -43.50693,-6.45851 -2.06572,0.0302 -4.6797,0.10417 -5.7945,0.1687 -1.11476,0.0646 -2.04792,0.10066 -2.07634,0.0722 -0.045,-0.0448 -1.0053,-15.19482 -0.96576,-15.23057 0.008,-0.008 0.92544,-0.0716 2.05223,-0.14458 1.3691,-0.0887 4.91826,-0.14303 8.45028,-0.14457 z m -72.696647,18.43569 c 0.06643,0.0714 7.315537,13.27709 7.315537,13.32675 0,0.012 -0.33262,0.20711 -0.74844,0.43375 -5.49836,2.99686 -11.520423,6.96303 -16.997493,11.15921 -2.122486,1.6261 -4.163129,3.28675 -6.059727,4.93891 -2.763466,2.4073 -5.519031,5.02765 -8.153046,7.73607 -4.188314,4.30662 -8.069301,8.83591 -11.18606,13.08544 -0.428228,0.58393 -0.518926,0.66211 -0.676036,0.55427 -0.743971,-0.51067 -12.069524,-9.01277 -12.07184,-9.0612 -0.0032,-0.0654 2.188315,-2.96196 3.114542,-4.12094 3.702693,-4.63305 6.952577,-8.24177 11.323395,-12.60374 5.422218,-5.41124 10.590321,-9.89733 16.418014,-14.21307 1.68388,-1.247 3.422814,-2.47978 5.238862,-3.71655 4.330773,-2.94935 12.27561,-7.74115 12.482292,-7.5189 z m 180.256787,26.14737 1.59348,1.68696 c 14.15689,14.8539 24.97464,32.22325 31.79723,51.08979 0.33396,0.9235 0.62801,1.75148 0.65189,1.85562 0.0314,0.13682 -1.93992,0.85746 -7.0741,2.57859 -3.90783,1.31002 -7.16723,2.38116 -7.24311,2.38582 -0.0759,0.005 -0.60152,-1.2735 -1.18304,-2.84371 -5.969,-16.11689 -15.21187,-30.93143 -27.33066,-43.81189 l -2.00392,-2.14481 5.38405,-5.39818 z m -254.691788,75.38159 6.494676,1.25313 c 3.574397,0.70032 6.934399,1.35613 7.484553,1.44593 0.686953,0.11217 1.014012,0.2292 1.014012,0.36149 0,0.10595 -0.153023,1.06824 -0.338008,2.14481 -1.77313,10.31915 -2.154169,22.66846 -1.110602,36.17254 0.477667,6.18126 1.540548,13.7745 2.559231,18.33932 0.153154,0.68636 0.248963,1.29382 0.21727,1.32544 -0.03169,0.0316 -3.362797,0.75672 -7.412074,1.61465 -4.049328,0.85789 -7.418252,1.55725 -7.460429,1.56642 -0.04205,0.009 -0.300037,-1.13437 -0.579433,-2.5545 -2.203444,-11.19939 -3.166429,-21.72408 -3.186982,-34.87117 -0.01437,-9.22213 0.519332,-15.94183 1.88322,-24.19538 z m 280.308238,41.9322 0.50701,0.0722 c 0.27676,0.0401 3.6727,0.44323 7.53284,0.89166 3.86013,0.44843 7.05852,0.85201 7.09824,0.89167 0.0932,0.0929 -0.16553,1.91116 -0.74845,5.44635 -3.19455,19.37336 -9.86586,36.82275 -20.69114,54.07808 -0.29568,0.4713 -0.61108,0.83626 -0.70017,0.81936 -0.2373,-0.0448 -12.74246,-7.98776 -12.74787,-8.09727 -0.003,-0.051 0.5227,-0.91859 1.15889,-1.9279 2.79915,-4.44071 6.51785,-11.42371 8.57102,-16.09812 4.93941,-11.24543 8.19324,-22.72164 9.87477,-34.87114 z M 34.593711,425.97191 c 0.307673,0.006 14.489227,3.52144 14.582798,3.61483 0.06429,0.0642 -14.460111,58.94894 -14.679361,59.57234 -0.264295,0.75154 -2.448917,6.89219 -8.89811,5.83562 -7.188866,-1.53385 -6.459303,-9.60062 -5.901978,-9.47455 0.07403,0.0164 3.297467,-13.49343 7.339677,-29.83423 5.771655,-23.33215 7.392523,-29.71712 7.556974,-29.71401 z m 208.939479,17.49584 c 0.26861,0.009 0.79767,0.86897 4.12858,6.31393 2.17437,3.55436 3.95956,6.49385 3.95956,6.53082 0,0.0895 -2.24931,1.43362 -4.63558,2.79547 -14.66383,8.36864 -30.89035,14.28272 -47.5148,17.30273 -2.35548,0.42806 -3.72149,0.65873 -7.24309,1.18079 -0.4553,0.0675 -0.89848,0.13569 -0.9899,0.14479 -0.20655,0.0203 -0.15998,0.41098 -1.23133,-7.49463 -0.49266,-3.63545 -0.9217,-6.82967 -0.96575,-7.10914 -0.0773,-0.4901 -0.0566,-0.50843 0.38632,-0.57837 0.25249,-0.0397 1.76248,-0.27013 3.35596,-0.5061 14.63282,-2.1666 29.69198,-7.13661 42.85504,-14.12199 2.3316,-1.23733 6.67037,-3.69353 7.77427,-4.4101 0.0348,-0.0226 0.0823,-0.0494 0.12072,-0.0482 z m -140.5404,5.95243 c 1.2996,0.0852 3.01916,0.6661 6.8568,2.04841 7.41309,2.6702 15.83145,5.40983 19.62883,6.38623 0.54937,0.14127 1.01325,0.3318 1.01402,0.4097 0.001,0.14074 -3.75566,14.54864 -3.8147,14.628 -0.0362,0.0491 -4.16398,-1.11446 -6.73609,-1.90379 -3.34367,-1.02612 -8.97009,-2.90777 -12.9893,-4.33779 l -3.98373,-1.42183 -14.631058,5.88012 c -11.902923,4.78909 -14.630484,5.85868 -14.703523,5.68719 -0.594444,-1.39562 -5.653196,-13.95979 -5.625485,-13.97721 0.254566,-0.16031 32.237656,-12.94422 32.738866,-13.08573 0.82518,-0.233 1.4656,-0.36438 2.24537,-0.3133 z"
       style="display:inline;opacity:0.5;fill:#ffffff;fill-opacity:1;stroke:#000000;stroke-width:3.85941029;stroke-miterlimit:4;stroke-dasharray:none;stroke-opacity:1"
       sodipodi:nodetypes="ccssccssscccccccssssscccsssscccscsssccccccssssssssssccccscssccsscccsscsscsssssccsccsscsscsccscccccssc" />
    <ellipse
       cy="334.93869"
       cx="-242.26097"
       style="opacity:0.928;fill:#ffffff;fill-opacity:1;fill-rule:evenodd;stroke:#000000"
       id="path3047-7"
       rx="16.401163"
       ry="16.363543"
       transform="scale(-1,1)" />
    <ellipse
       cy="334.93869"
       cx="-170.28149"
       style="opacity:0.928;fill:#ffffff;fill-opacity:1;fill-rule:evenodd;stroke:#000000"
       id="path3047-1-89"
       rx="16.401163"
       ry="16.363543"
       transform="scale(-1,1)" />
    <ellipse
       cy="334.93869"
       cx="-98.116379"
       style="opacity:0.928;fill:#ffffff;fill-opacity:1;fill-rule:evenodd;stroke:#000000"
       id="path3047-1-8-8"
       rx="16.401163"
       ry="16.363543"
       transform="scale(-1,1)" />
  </g>
  <g
     inkscape:groupmode="layer"
     id="layer4"
     inkscape:label="Dots">
    <ellipse
       style="opacity:0.928;fill:#ffffff;fill-opacity:1;fill-rule:evenodd;stroke:#000000"
       id="path3047"
       cx="237.68259"
       cy="165.68341"
       rx="19.21628"
       ry="17.374786" />
    <ellipse
       style="opacity:0.928;fill:#ffffff;fill-opacity:1;fill-rule:evenodd;stroke:#000000"
       id="path3047-1"
       cx="322.01675"
       cy="165.68341"
       rx="19.21628"
       ry="17.374786" />
    <ellipse
       style="opacity:0.928;fill:#ffffff;fill-opacity:1;fill-rule:evenodd;stroke:#000000"
       id="path3047-1-8"
       cx="406.56836"
       cy="165.68341"
       rx="19.21628"
       ry="17.374786" />
  </g>
</svg>
