<?xml version="1.0" encoding="UTF-8" standalone="no"?>
<svg
   width="36pt"
   height="36pt"
   viewBox="0 0 36 36"
   version="1.1"
   id="svg2181"
   sodipodi:docname="ic_send_photo_offline_white.svg"
   inkscape:version="1.1 (c68e22c387, 2021-05-23)"
   xmlns:inkscape="http://www.inkscape.org/namespaces/inkscape"
   xmlns:sodipodi="http://sodipodi.sourceforge.net/DTD/sodipodi-0.dtd"
   xmlns="http://www.w3.org/2000/svg"
   xmlns:svg="http://www.w3.org/2000/svg">
  <defs
     id="defs2185" />
  <sodipodi:namedview
     id="namedview2183"
     pagecolor="#505050"
     bordercolor="#eeeeee"
     borderopacity="1"
     inkscape:pageshadow="0"
     inkscape:pageopacity="0"
     inkscape:pagecheckerboard="0"
     inkscape:document-units="pt"
     showgrid="false"
     inkscape:zoom="12.25"
     inkscape:cx="24"
     inkscape:cy="24.040816"
     inkscape:current-layer="svg2181" />
  <path
     style="fill:#ffffff;fill-opacity:0.627451;fill-rule:nonzero;stroke:none"
     d="m 22.5,19.5 c 0,2.484375 -2.015625,4.5 -4.5,4.5 -2.484375,0 -4.5,-2.015625 -4.5,-4.5 0,-2.484375 2.015625,-4.5 4.5,-4.5 2.484375,0 4.5,2.015625 4.5,4.5 z m 0,0"
     id="path2176" />
  <path
     style="fill:#ffffff;fill-opacity:0.627451;fill-rule:nonzero;stroke:none"
     d="M 30,7.5 H 25.246094 L 23.386719,5.476562 C 22.828125,4.859375 22.019531,4.5 21.179688,4.5 h -6.359376 c -0.839843,0 -1.648437,0.359375 -2.21875,0.976562 L 10.753906,7.5 H 6 c -1.648438,0 -3,1.351562 -3,3 v 18 c 0,1.648438 1.351562,3 3,3 h 24 c 1.648438,0 3,-1.351562 3,-3 v -18 c 0,-1.648438 -1.351562,-3 -3,-3 z M 18,27 c -4.140625,0 -7.5,-3.359375 -7.5,-7.5 0,-4.140625 3.359375,-7.5 7.5,-7.5 4.140625,0 7.5,3.359375 7.5,7.5 0,4.140625 -3.359375,7.5 -7.5,7.5 z m 0,0"
     id="path2178" />
</svg>
