<?xml version="1.0" encoding="UTF-8" standalone="no"?>
<svg
   width="36pt"
   height="36pt"
   viewBox="0 0 36 36"
   version="1.1"
   id="svg1838"
   sodipodi:docname="ic_send_location_offline_white.svg"
   inkscape:version="1.1 (c68e22c387, 2021-05-23)"
   xmlns:inkscape="http://www.inkscape.org/namespaces/inkscape"
   xmlns:sodipodi="http://sodipodi.sourceforge.net/DTD/sodipodi-0.dtd"
   xmlns="http://www.w3.org/2000/svg"
   xmlns:svg="http://www.w3.org/2000/svg">
  <defs
     id="defs1842" />
  <sodipodi:namedview
     id="namedview1840"
     pagecolor="#505050"
     bordercolor="#eeeeee"
     borderopacity="1"
     inkscape:pageshadow="0"
     inkscape:pageopacity="0"
     inkscape:pagecheckerboard="0"
     inkscape:document-units="pt"
     showgrid="false"
     inkscape:zoom="12.25"
     inkscape:cx="24"
     inkscape:cy="24.040816"
     inkscape:current-layer="svg1838" />
  <path
     style="fill:#ffffff;fill-opacity:0.627451;fill-rule:nonzero;stroke:none"
     d="m 18,3.242188 c -6.300781,0 -12,4.828124 -12,12.300781 0,4.769531 3.675781,10.378906 11.011719,16.84375 0.566406,0.496093 1.421875,0.496093 1.992187,0 C 26.324219,25.921875 30,20.3125 30,15.542969 30,8.070312 24.300781,3.242188 18,3.242188 Z m 0,15 c -1.648438,0 -3,-1.351563 -3,-3 0,-1.648438 1.351562,-3 3,-3 1.648438,0 3,1.351562 3,3 0,1.648437 -1.351562,3 -3,3 z m 0,0"
     id="path1835" />
</svg>
