<?xml version="1.0" encoding="UTF-8"?>
<svg xmlns="http://www.w3.org/2000/svg" xmlns:xlink="http://www.w3.org/1999/xlink" width="36pt" height="36pt" viewBox="0 0 36 36" version="1.1">
<g id="surface1">
<path style=" stroke:none;fill-rule:nonzero;fill:rgb(0%,0%,0%);fill-opacity:0.627451;" d="M 18 3.242188 C 11.699219 3.242188 6 8.070312 6 15.542969 C 6 20.3125 9.675781 25.921875 17.011719 32.386719 C 17.578125 32.882812 18.433594 32.882812 19.003906 32.386719 C 26.324219 25.921875 30 20.3125 30 15.542969 C 30 8.070312 24.300781 3.242188 18 3.242188 Z M 18 18.242188 C 16.351562 18.242188 15 16.890625 15 15.242188 C 15 13.59375 16.351562 12.242188 18 12.242188 C 19.648438 12.242188 21 13.59375 21 15.242188 C 21 16.890625 19.648438 18.242188 18 18.242188 Z M 18 18.242188 "/>
</g>
</svg>
