<?xml version="1.0" encoding="UTF-8"?>
<svg xmlns="http://www.w3.org/2000/svg" xmlns:xlink="http://www.w3.org/1999/xlink" width="36pt" height="36pt" viewBox="0 0 36 36" version="1.1">
<g id="surface1">
<path style=" stroke:none;fill-rule:nonzero;fill:rgb(14.509804%,60.784314%,14.117647%);fill-opacity:0.627451;" d="M 18 21.75 C 20.488281 21.75 22.5 19.738281 22.5 17.25 L 22.5 8.25 C 22.5 5.761719 20.488281 3.75 18 3.75 C 15.507812 3.75 13.5 5.761719 13.5 8.25 L 13.5 17.25 C 13.5 19.738281 15.507812 21.75 18 21.75 Z M 26.863281 17.25 C 26.128906 17.25 25.511719 17.789062 25.394531 18.523438 C 24.777344 22.050781 21.703125 24.75 18 24.75 C 14.292969 24.75 11.21875 22.050781 10.601562 18.523438 C 10.484375 17.789062 9.867188 17.25 9.132812 17.25 C 8.21875 17.25 7.5 18.058594 7.632812 18.960938 C 8.367188 23.460938 11.96875 26.984375 16.5 27.628906 L 16.5 30.75 C 16.5 31.574219 17.171875 32.25 18 32.25 C 18.824219 32.25 19.5 31.574219 19.5 30.75 L 19.5 27.628906 C 24.027344 26.984375 27.628906 23.460938 28.363281 18.960938 C 28.511719 18.058594 27.777344 17.25 26.863281 17.25 Z M 26.863281 17.25 "/>
</g>
</svg>
