<?xml version="1.0" encoding="UTF-8"?>
<svg xmlns="http://www.w3.org/2000/svg" xmlns:xlink="http://www.w3.org/1999/xlink" width="36pt" height="36pt" viewBox="0 0 36 36" version="1.1">
<g id="surface1">
<path style=" stroke:none;fill-rule:nonzero;fill:rgb(95.686275%,26.27451%,21.176471%);fill-opacity:0.627451;" d="M 18.074219 3.316406 C 11.773438 3.316406 6.074219 8.148438 6.074219 15.617188 C 6.074219 20.386719 9.75 25.996094 17.085938 32.460938 C 17.65625 32.957031 18.511719 32.957031 19.078125 32.460938 C 26.398438 25.996094 30.074219 20.386719 30.074219 15.617188 C 30.074219 8.148438 24.375 3.316406 18.074219 3.316406 Z M 18.074219 18.316406 C 16.425781 18.316406 15.074219 16.96875 15.074219 15.316406 C 15.074219 13.667969 16.425781 12.316406 18.074219 12.316406 C 19.726562 12.316406 21.074219 13.667969 21.074219 15.316406 C 21.074219 16.96875 19.726562 18.316406 18.074219 18.316406 Z M 18.074219 18.316406 "/>
</g>
</svg>
