<?xml version="1.0" encoding="UTF-8"?>
<svg xmlns="http://www.w3.org/2000/svg" xmlns:xlink="http://www.w3.org/1999/xlink" width="36pt" height="36pt" viewBox="0 0 36 36" version="1.1">
<g id="surface1">
<path style=" stroke:none;fill-rule:nonzero;fill:rgb(95.686275%,26.27451%,21.176471%);fill-opacity:0.627451;" d="M 31.5 28.5 L 31.5 7.5 C 31.5 5.851562 30.148438 4.5 28.5 4.5 L 7.5 4.5 C 5.851562 4.5 4.5 5.851562 4.5 7.5 L 4.5 28.5 C 4.5 30.148438 5.851562 31.5 7.5 31.5 L 28.5 31.5 C 30.148438 31.5 31.5 30.148438 31.5 28.5 Z M 13.351562 20.96875 L 16.5 24.765625 L 21.148438 18.78125 C 21.449219 18.390625 22.050781 18.390625 22.351562 18.796875 L 27.613281 25.816406 C 27.988281 26.308594 27.628906 27.015625 27.015625 27.015625 L 9.03125 27.015625 C 8.398438 27.015625 8.054688 26.296875 8.445312 25.800781 L 12.179688 21 C 12.464844 20.609375 13.035156 20.59375 13.351562 20.96875 Z M 13.351562 20.96875 "/>
</g>
</svg>
