<?xml version="1.0" encoding="UTF-8" standalone="no"?>
<svg
   width="36pt"
   height="36pt"
   viewBox="0 0 36 36"
   version="1.1"
   id="svg2481"
   sodipodi:docname="ic_send_picture_offline_white.svg"
   inkscape:version="1.1 (c68e22c387, 2021-05-23)"
   xmlns:inkscape="http://www.inkscape.org/namespaces/inkscape"
   xmlns:sodipodi="http://sodipodi.sourceforge.net/DTD/sodipodi-0.dtd"
   xmlns="http://www.w3.org/2000/svg"
   xmlns:svg="http://www.w3.org/2000/svg">
  <defs
     id="defs2485" />
  <sodipodi:namedview
     id="namedview2483"
     pagecolor="#505050"
     bordercolor="#eeeeee"
     borderopacity="1"
     inkscape:pageshadow="0"
     inkscape:pageopacity="0"
     inkscape:pagecheckerboard="0"
     inkscape:document-units="pt"
     showgrid="false"
     inkscape:zoom="12.25"
     inkscape:cx="24"
     inkscape:cy="24.040816"
     inkscape:current-layer="svg2481" />
  <path
     style="fill:#ffffff;fill-opacity:1;fill-rule:nonzero;stroke:none"
     d="m 31.5,28.5 v -21 c 0,-1.648438 -1.351562,-3 -3,-3 h -21 c -1.648438,0 -3,1.351562 -3,3 v 21 c 0,1.648438 1.351562,3 3,3 h 21 c 1.648438,0 3,-1.351562 3,-3 z M 13.351562,20.96875 16.5,24.765625 21.148438,18.78125 c 0.300781,-0.390625 0.902343,-0.390625 1.203124,0.01563 l 5.261719,7.019531 c 0.375,0.492188 0.01563,1.199219 -0.597656,1.199219 H 9.03125 c -0.632812,0 -0.976562,-0.71875 -0.585938,-1.214844 L 12.179688,21 c 0.285156,-0.390625 0.855468,-0.40625 1.171874,-0.03125 z m 0,0"
     id="path2478" />
</svg>
