<?xml version="1.0" encoding="UTF-8"?>
<svg xmlns="http://www.w3.org/2000/svg" xmlns:xlink="http://www.w3.org/1999/xlink" width="36pt" height="36pt" viewBox="0 0 36 36" version="1.1">
<g id="surface1">
<path style=" stroke:none;fill-rule:nonzero;fill:rgb(14.509804%,60.784314%,14.117647%);fill-opacity:0.627451;" d="M 18 3 C 9.703125 3 3 9.703125 3 18 C 3 26.296875 9.703125 33 18 33 C 26.296875 33 33 26.296875 33 18 C 33 9.703125 26.296875 3 18 3 Z M 24.449219 24.449219 C 23.863281 25.035156 22.921875 25.035156 22.335938 24.449219 L 18 20.113281 L 13.664062 24.449219 C 13.078125 25.035156 12.136719 25.035156 11.550781 24.449219 C 10.964844 23.863281 10.964844 22.921875 11.550781 22.335938 L 15.886719 18 L 11.550781 13.664062 C 10.964844 13.078125 10.964844 12.136719 11.550781 11.550781 C 12.136719 10.964844 13.078125 10.964844 13.664062 11.550781 L 18 15.886719 L 22.335938 11.550781 C 22.921875 10.964844 23.863281 10.964844 24.449219 11.550781 C 25.035156 12.136719 25.035156 13.078125 24.449219 13.664062 L 20.113281 18 L 24.449219 22.335938 C 25.019531 22.90625 25.019531 23.863281 24.449219 24.449219 Z M 24.449219 24.449219 "/>
</g>
</svg>
